PathFileType	4	(X/Y/Z)	/Users/itak/Documents/Research/Walk-IL/dataset/trc/00192_00008.trc
DataRate	CameraRate	NumFrames	NumMarkers	Units	OrigDataRate	OrigDataStartFrame	OrigNumFrames
100.000000	100.000000	4	53	mm	100.000000	496	794
Frame#	Time	RPSI			LPSI			L3			STRN			T10			C7			CLAV			RBAK			LBAK			LSHO			LUPA			LAEL			LAOL			LWTS			LWPS			LFRA			LIFD			LHPS			LHTS			RSHO			RUPA			RAEL			RAOL			RWTS			RWPS			RFRA			RIFD			RHTS			RHPS			RBHD			LFHD			RFHD			LBHD			LHIP			RHIP			RASI			LASI			LKNE			LTHI			LANK			LTIP			LTOE			LMT1			LMT5			LHEE			RKNE			RTHI			RANK			RTIP			RTOE			RMT1			RMT5			RHEE			
		X1	Y1	Z1	X2	Y2	Z2	X3	Y3	Z3	X4	Y4	Z4	X5	Y5	Z5	X6	Y6	Z6	X7	Y7	Z7	X8	Y8	Z8	X9	Y9	Z9	X10	Y10	Z10	X11	Y11	Z11	X12	Y12	Z12	X13	Y13	Z13	X14	Y14	Z14	X15	Y15	Z15	X16	Y16	Z16	X17	Y17	Z17	X18	Y18	Z18	X19	Y19	Z19	X20	Y20	Z20	X21	Y21	Z21	X22	Y22	Z22	X23	Y23	Z23	X24	Y24	Z24	X25	Y25	Z25	X26	Y26	Z26	X27	Y27	Z27	X28	Y28	Z28	X29	Y29	Z29	X30	Y30	Z30	X31	Y31	Z31	X32	Y32	Z32	X33	Y33	Z33	X34	Y34	Z34	X35	Y35	Z35	X36	Y36	Z36	X37	Y37	Z37	X38	Y38	Z38	X39	Y39	Z39	X40	Y40	Z40	X41	Y41	Z41	X42	Y42	Z42	X43	Y43	Z43	X44	Y44	Z44	X45	Y45	Z45	X46	Y46	Z46	X47	Y47	Z47	X48	Y48	Z48	X49	Y49	Z49	X50	Y50	Z50	X51	Y51	Z51	X52	Y52	Z52	X53	Y53	Z53	

497	4.96	838.8427124023438	1045.235107421875	-666.2833251953125	940.892822265625	1055.2880859375	-735.6168823242188	887.6030883789062	1087.052734375	-697.291259765625	1042.704223632812	1293.377075195312	-481.7448425292969	871.9757080078125	1249.548828125	-727.3225708007812	927.7247314453125	1515.446044921875	-672.22705078125	1038.694702148438	1407.438842773438	-508.0494384765625	794.1361083984375	1345.139038085938	-669.3726196289062	1002.876037597656	1491.624633789062	-736.7381591796875	1109.357421875	1477.93408203125	-720.6007080078125	1144.599731445312	1351.314086914062	-800.5245361328125	1169.163330078125	1139.305908203125	-822.027099609375	1085.262573242188	1116.293212890625	-803.27783203125	1250.144653320312	908.9368286132812	-740.4468994140625	1214.737426757812	889.9473266601562	-824.8873901367188	1195.540771484375	1030.765869140625	-829.9047241210938	1249.51220703125	732.3829345703125	-726.8677978515625	1235.468627929688	822.5640869140625	-815.033203125	1278.3798828125	832.9099731445312	-756.575927734375	817.37353515625	1495.806884765625	-517.6156616210938	746.368896484375	1433.300659179688	-496.9613342285156	677.5133666992188	1146.206420898438	-483.1147155761719	759.7498779296875	1135.6552734375	-539.8145141601562	792.5167236328125	942.4404296875	-351.6482543945312	717.0446166992188	909.356689453125	-390.0537109375	681.9078369140625	1074.10693359375	-446.0755310058594	846.4335327148438	761.4464721679688	-331.8170166015625	810.768798828125	854.0138549804688	-315.5227966308594	745.6710815429688	832.3528442382812	-358.9556274414062	904.8001708984375	1667.79833984375	-580.4691162109375	1088.953979492188	1707.710571289062	-470.6107482910156	971.3214111328125	1694.920532226562	-420.6464538574219	1027.06005859375	1689.905151367188	-638.9911499023438	1102.7138671875	1009.28466796875	-706.5195922851562	818.9757690429688	992.1009521484375	-472.1552429199219	910.7637329101562	1028.7353515625	-434.2010192871094	1123.881469726562	1033.9580078125	-581.1199340820312	1119.77294921875	500.2471618652344	-646.30224609375	1133.609741210938	648.4096069335938	-667.0003662109375	1060.202270507812	31.45689582824707	-734.8302001953125	1103.490966796875	272.1388549804688	-690.9300537109375	1157.6669921875	39.82249069213867	-537.6486206054688	1093.1806640625	45.55617904663086	-553.2608032226562	1155.074096679688	32.42615509033203	-655.19384765625	973.9119262695312	36.62717819213867	-740.0621948242188	939.7277221679688	513.7501220703125	-349.9146118164062	874.41064453125	780.4800415039062	-390.3629455566406	842.4776000976562	104.2080230712891	-621.0267944335938	946.904541015625	390.7029724121094	-384.4887084960938	956.4420166015625	62.05210113525391	-448.3608703613281	977.5791015625	66.42593383789062	-509.9505920410156	852.7227172851562	65.20278167724609	-513.0867919921875	886.841796875	125.6118392944336	-688.8101196289062	
498	4.97	844.8089599609375	1045.1572265625	-662.5808715820312	947.4718017578125	1055.124755859375	-730.8134155273438	894.0126342773438	1087.045654296875	-693.1080322265625	1046.716430664062	1292.968994140625	-475.5155334472656	879.1063232421875	1249.7197265625	-723.3567504882812	934.3977661132812	1515.430297851562	-666.9945678710938	1043.110229492188	1407.156982421875	-501.5226135253906	800.6340942382812	1345.158203125	-666.3031616210938	1010.338989257812	1491.7685546875	-730.5477905273438	1116.61865234375	1478.12353515625	-712.88720703125	1153.490356445312	1351.738403320312	-792.38818359375	1179.875122070312	1139.88720703125	-813.5769653320312	1095.822143554688	1116.27978515625	-796.3261108398438	1262.34765625	911.39306640625	-728.5800170898438	1228.562255859375	890.9569091796875	-813.3471069335938	1207.6455078125	1031.498291015625	-820.2093505859375	1264.138549804688	735.4688720703125	-713.3119506835938	1250.149658203125	824.002197265625	-802.4118041992188	1292.034057617188	835.7210693359375	-743.46142578125	821.94970703125	1495.4794921875	-513.9068603515625	750.6919555664062	1432.960083007812	-494.4183349609375	681.2755737304688	1145.77783203125	-482.3096618652344	764.5740356445312	1135.481811523438	-537.8880004882812	796.15380859375	943.1557006835938	-348.7402954101562	721.3455810546875	909.309814453125	-387.8167724609375	685.7075805664062	1073.6572265625	-444.9627685546875	851.42236328125	762.8402709960938	-327.436279296875	814.8641357421875	855.0403442382812	-311.9691162109375	750.274658203125	832.6300048828125	-356.0726318359375	910.449951171875	1667.665283203125	-574.7733154296875	1093.147338867188	1706.826416015625	-462.31103515625	974.8453979492188	1693.921142578125	-413.9599609375	1033.490234375	1689.942504882812	-631.57568359375	1109.50390625	1009.399169921875	-698.6943359375	822.8283081054688	992.4627685546875	-468.8744812011719	914.410400390625	1028.858764648438	-429.7527465820312	1129.015502929688	1033.37890625	-574.4545288085938	1121.693237304688	499.5869140625	-644.148681640625	1136.135375976562	647.1343994140625	-664.4888916015625	1060.115112304688	31.72890281677246	-734.5875854492188	1104.334594726562	271.9486694335938	-689.7581787109375	1157.694091796875	39.31025695800781	-537.234619140625	1093.11083984375	45.17086029052734	-553.0926513671875	1154.97265625	32.24947738647461	-655.4890747070312	973.8876953125	36.86411666870117	-739.8519897460938	944.3516235351562	516.578125	-339.5744018554688	877.2310791015625	782.38525390625	-384.2017822265625	861.4197998046875	96.72696685791016	-600.7265625	954.0927734375	392.8280029296875	-371.1428833007812	971.5995483398438	63.2000846862793	-423.5169372558594	994.257080078125	65.75764465332031	-484.77734375	869.7454833984375	61.86293792724609	-491.3131408691406	908.0654907226562	116.3698501586914	-668.0570068359375	
499	4.98	850.6971435546875	1044.976928710938	-658.8088989257812	953.9263305664062	1054.842651367188	-725.9143676757812	900.3150634765625	1086.9111328125	-688.8630981445312	1050.667846679688	1292.501342773438	-469.2620544433594	886.0980834960938	1249.764892578125	-719.2317504882812	940.8817749023438	1515.290405273438	-661.6875610351562	1047.421020507812	1406.798095703125	-494.9805297851562	807.010986328125	1345.053466796875	-663.075927734375	1017.598876953125	1491.80078125	-724.3045043945312	1123.657348632812	1478.236938476562	-705.1710815429688	1162.13818359375	1352.08740234375	-784.2372436523438	1190.368774414062	1140.42041015625	-805.074951171875	1106.213256835938	1116.181518554688	-789.2479248046875	1274.296508789062	913.8468017578125	-716.64453125	1242.12890625	891.9771728515625	-801.6744384765625	1219.491821289062	1032.194580078125	-810.4246826171875	1278.40673828125	738.2932739257812	-700.054443359375	1264.5810546875	825.4990234375	-789.6643676757812	1305.42822265625	838.600341796875	-730.2831420898438	826.4214477539062	1495.045288085938	-510.1204833984375	754.9440307617188	1432.48876953125	-491.7604370117188	685.0830078125	1145.202026367188	-481.4103698730469	769.4097290039062	1135.18212890625	-535.866455078125	799.7210693359375	943.5527954101562	-345.8916320800781	725.5258178710938	909.0816650390625	-385.5860290527344	689.5680541992188	1073.063720703125	-443.7665710449219	856.0474243164062	763.822998046875	-323.2331237792969	818.7325439453125	855.702392578125	-308.5549011230469	754.646728515625	832.6732177734375	-353.254150390625	915.9322509765625	1667.416015625	-569.0446166992188	1097.147583007812	1705.860717773438	-454.0198669433594	978.2084350585938	1692.830322265625	-407.25830078125	1039.741577148438	1689.892333984375	-624.1387329101562	1115.924926757812	1009.005981445312	-691.5347900390625	826.5787963867188	992.621337890625	-465.6422424316406	917.96044921875	1028.881713867188	-425.1912231445312	1133.991455078125	1032.769287109375	-567.693115234375	1123.538696289062	498.9883728027344	-641.9397583007812	1138.597045898438	645.9153442382812	-661.986572265625	1060.036743164062	32.01675796508789	-734.3471069335938	1105.166748046875	271.7916564941406	-688.5653076171875	1157.7177734375	38.87532043457031	-536.8408813476562	1093.066528320312	44.85782623291016	-552.8626098632812	1154.706787109375	31.70405006408691	-656.2565307617188	973.8755493164062	37.15301132202148	-739.6497192382812	948.6979370117188	519.2127075195312	-329.5555725097656	879.9176635742188	784.0761108398438	-378.1774597167969	879.62158203125	89.51822662353516	-579.5518188476562	960.8673095703125	394.8957214355469	-357.9030456542969	985.8159790039062	64.57889556884766	-398.1959838867188	1009.979431152344	65.32018280029297	-459.0104675292969	885.9188232421875	58.87339782714844	-468.8217468261719	928.3612060546875	107.4143905639648	-646.3916625976562	
500	4.99	856.50244140625	1044.690307617188	-654.9554443359375	960.2682495117188	1054.441528320312	-720.9117431640625	906.5037231445312	1086.659912109375	-684.5534057617188	1054.55126953125	1291.982543945312	-462.9671020507812	892.953369140625	1249.687744140625	-714.9443359375	947.1773071289062	1515.032836914062	-656.3008422851562	1051.62939453125	1406.372680664062	-488.4154968261719	813.2689208984375	1344.847290039062	-659.68359375	1024.656860351562	1491.726928710938	-718.0093383789062	1130.474365234375	1478.279418945312	-697.4556884765625	1170.533569335938	1352.359252929688	-776.0756225585938	1200.6357421875	1140.908081054688	-796.518310546875	1116.419799804688	1116.003295898438	-782.0416259765625	1285.9677734375	916.2845458984375	-704.6529541015625	1255.417236328125	893.0010986328125	-789.8869018554688	1231.070190429688	1032.854736328125	-800.5494384765625	1292.336791992188	740.9782104492188	-686.8948974609375	1278.733520507812	827.0631103515625	-776.8198852539062	1318.529296875	841.529541015625	-717.0552368164062	830.785400390625	1494.516723632812	-506.2566223144531	759.1263427734375	1431.895263671875	-488.9793090820312	688.9480590820312	1144.490600585938	-480.3980407714844	774.2442626953125	1134.76171875	-533.725341796875	803.2002563476562	943.6268920898438	-343.0828857421875	729.5762939453125	908.669189453125	-383.3787231445312	693.4862060546875	1072.335083007812	-442.481689453125	860.2989501953125	764.3749389648438	-319.2017822265625	822.3577270507812	855.9907836914062	-305.2608337402344	758.7787475585938	832.4741821289062	-350.52001953125	921.258544921875	1667.06689453125	-563.2810668945312	1100.965454101562	1704.81591796875	-445.7331237792969	981.4182739257812	1691.657470703125	-400.5416564941406	1045.822509765625	1689.763427734375	-616.6839599609375	1121.907348632812	1008.025024414062	-685.237060546875	830.2317504882812	992.5972900390625	-462.4373474121094	921.4080810546875	1028.79052734375	-420.5344848632812	1138.80419921875	1032.128540039062	-560.8519897460938	1125.298828125	498.4574279785156	-639.6776123046875	1141.095336914062	644.8781127929688	-659.2384643554688	1059.970581054688	32.31714630126953	-734.114501953125	1105.984985351562	271.6685485839844	-687.3574829101562	1157.740356445312	38.49865341186523	-536.4712524414062	1093.047119140625	44.60702896118164	-552.580322265625	1154.313232421875	30.86587333679199	-657.3946533203125	973.868408203125	37.49146270751953	-739.4523315429688	952.8068237304688	521.641845703125	-319.8651123046875	882.4747924804688	785.55517578125	-372.29931640625	897.0577392578125	82.60596466064453	-557.5401611328125	967.2745971679688	396.8932189941406	-344.7860107421875	999.14013671875	66.19451141357422	-372.4985656738281	1024.773559570312	65.13111877441406	-432.7763061523438	901.2470092773438	56.23454284667969	-445.6712036132812	947.4414672851562	98.8836669921875	-623.8711547851562	
